<?xml version="1.0" encoding="UTF-8"?>
<svg width="800" height="600" viewBox="0 0 800 600" fill="none" xmlns="http://www.w3.org/2000/svg">
  <!-- Background -->
  <rect width="800" height="600" fill="#FFF5F7"/>
  
  <!-- Bowl -->
  <path d="M200 200 C200 200, 300 150, 400 200 C500 250, 550 350, 500 400 C450 450, 350 450, 300 400 C250 350, 200 300, 200 200 Z" fill="white" stroke="#E2E8F0" stroke-width="4"/>
  
  <!-- Apple Slices -->
  <path d="M300 250 C300 250, 320 230, 340 240 C360 250, 370 270, 360 290 C350 310, 330 320, 310 310 C290 300, 290 280, 300 250 Z" fill="#EF4444"/>
  <path d="M350 280 C350 280, 370 260, 390 270 C410 280, 420 300, 410 320 C400 340, 380 350, 360 340 C340 330, 340 310, 350 280 Z" fill="#EF4444"/>
  
  <!-- Lettuce -->
  <path d="M250 300 C250 300, 270 280, 290 290 C310 300, 320 320, 310 340 C300 360, 280 370, 260 360 C240 350, 240 330, 250 300 Z" fill="#22C55E"/>
  <path d="M280 320 C280 320, 300 300, 320 310 C340 320, 350 340, 340 360 C330 380, 310 390, 290 380 C270 370, 270 350, 280 320 Z" fill="#22C55E"/>
  
  <!-- Walnuts -->
  <path d="M400 300 C400 300, 410 290, 420 295 C430 300, 435 310, 430 320 C425 330, 415 335, 405 330 C395 325, 395 315, 400 300 Z" fill="#92400E"/>
  <path d="M380 320 C380 320, 390 310, 400 315 C410 320, 415 330, 410 340 C405 350, 395 355, 385 350 C375 345, 375 335, 380 320 Z" fill="#92400E"/>
</svg> 